<svg id="Layer_1" data-name="Layer 1" xmlns="http://www.w3.org/2000/svg" xmlns:xlink="http://www.w3.org/1999/xlink" viewBox="0 0 71.62 65.84"><defs><clipPath id="clip-path" transform="translate(-130.4 -212.42)"><path d="M161.79,215.62a.81.81,0,0,1-.35-.48c0-.06,0-.21-.09-.23a.08.08,0,0,0-.11.05v0c0,.09-.2,0-.19.13l0,.08c0,.06,0,.12,0,.19s.09.07.17.08,0,0,0,0a.08.08,0,0,1-.1.08l-.14,0c-.14,0-.19,0-.29.1s-.1.06-.07.12.4,0,.49,0,.22.18.36.15a.76.76,0,0,1,.21,0,.16.16,0,0,0,.09,0c.06-.08,0-.17-.09-.22" style="fill:none"/></clipPath><clipPath id="clip-path-2" transform="translate(-130.4 -212.42)"><rect x="126.33" y="208.29" width="80.33" height="75.43" style="fill:none"/></clipPath><clipPath id="clip-path-3" transform="translate(-130.4 -212.42)"><path d="M163.39,214.93l-.19-.08-.06-.08s-.1-.09-.13,0a.16.16,0,0,0,0,.15.53.53,0,0,0,.06.1.21.21,0,0,1,0,.12v.11s0,0-.06,0a.1.1,0,0,1,0,0L163,215a.12.12,0,0,0-.12-.08l0,0s0,0,0,0a.28.28,0,0,0,0,.2.38.38,0,0,1,0,.1l-.06,0s0,0-.06,0,0-.1,0-.13a.43.43,0,0,0-.1-.27.19.19,0,0,0-.26,0h0a.19.19,0,0,0,0,.15l.06.13a.61.61,0,0,1,.07.14s0,.1-.1.08l-.08,0a.24.24,0,0,1-.06-.11c0-.1-.09-.12-.17-.14h0a.37.37,0,0,1-.07-.14.1.1,0,0,0,0-.05l-.05-.07a.16.16,0,0,0,0-.07,1.29,1.29,0,0,0-.16-.17c-.08-.08-.15,0-.14.06a1.84,1.84,0,0,0,.17.38,1.47,1.47,0,0,1,.06.14l0,0,.05.08c0,.06,0,.17,0,.24s.11.06.16.07a.23.23,0,0,1,.12.06l.07.09a.43.43,0,0,0,0,.07c0,.06.18.05.24.12a.33.33,0,0,0,.47,0h0a.66.66,0,0,1,.32-.22c.08,0,.12-.1.15-.16s.2-.08.22-.17v-.17a.3.3,0,0,0-.11-.28" style="fill:none"/></clipPath><clipPath id="clip-path-5" transform="translate(-130.4 -212.42)"><path d="M171.9,219.4a1.15,1.15,0,0,1-.1.23c0,.06-.06.13-.1.2a1.11,1.11,0,0,0-.12.27s0,.1,0,.14,0,.13-.11.13a.57.57,0,0,0-.18,0c-.22,0-.11.19-.15.31s-.08.06-.15.08-.06.07-.06.15-.05.3-.22.27-.17-.18-.3-.2-.14.19-.22.26-.35.09-.27.19.28,0,.36-.06a.31.31,0,0,1,.33,0s.11.09.09.14-.15,0-.17,0,.21.21.33.29.15.14.11.27.1.08.2,0a.22.22,0,0,1,.3.07h0c.06.14.14.16.28.19a.51.51,0,0,1,.32.17c.08.1.24.09.3.22s0,.27.14.37.22.13.21.26,0,.38.22.32a.66.66,0,0,1,.34,0c.1,0,.22.1.32.06l.15-.06h.2a.58.58,0,0,1,.36.19,1,1,0,0,0,.3.22,1.11,1.11,0,0,1,.32.25.39.39,0,0,1,.1.16.18.18,0,0,0,.11.1c.12.06.16.18.25.27.25.24.62.19.92.31l.32.14.37,0a.28.28,0,0,1,.17.07s0,.1.06.16.09.06.14.1a.33.33,0,0,1,.05.16,1.2,1.2,0,0,0,0,.38.39.39,0,0,0,.25.22c.15,0,.31,0,.43.1s.16.2.28.22a1.12,1.12,0,0,1,.36,0c.11.06.19.17.3.24a.47.47,0,0,0,.37,0c.13,0,.22-.11.35-.14l.18,0a.85.85,0,0,0,.16-.17,1.33,1.33,0,0,0,.29-.38,2.83,2.83,0,0,0,.08-.4,3.23,3.23,0,0,1,.4-.73l.28-.22a.93.93,0,0,0,.14-.38,2.52,2.52,0,0,0,.1-.46c0-.17,0-.33,0-.49s.24-.82.29-1a1,1,0,0,1,.08-.22c0-.05.08-.07.11-.12s0-.27,0-.37-.06-.3-.1-.45c-.11-.47.12-.93,0-1.4a2.48,2.48,0,0,1,0-.77,1.31,1.31,0,0,1,.06-.27c0-.05.05-.17.09-.2s.24.18.32,0-.07-.29-.12-.38l-.12-.16a.25.25,0,0,1-.06-.2.26.26,0,0,1,.07-.19c.05,0,.12,0,.17,0s0-.32.14-.39.16.13.17.22a1,1,0,0,0,0,.24c0,.09.07.1.1,0s0-.27,0-.4.07-.1,0-.16-.1-.06-.1-.12.08-.1,0-.12a.32.32,0,0,0-.17,0,.58.58,0,0,1-.18,0,.19.19,0,0,1-.12,0s0-.07,0-.08.25-.61.3-.7.06-.1.11-.1.09.09.15.08.05-.23.05-.3a.88.88,0,0,1,.1-.36,1.27,1.27,0,0,0,.2-.36c0-.08,0-.15,0-.22a1.8,1.8,0,0,0,0-.19c0-.12,0-.25.07-.37s0-.3.12-.34a1.71,1.71,0,0,1,.59,0,.65.65,0,0,1,.15.1.33.33,0,0,0,.15,0c.31,0,.21.4.18.61a.69.69,0,0,0,0,.4.55.55,0,0,1,.07.25s-.12.3-.08.35.13,0,.17.05a1,1,0,0,1,.35,0c.14.07.08.13,0,.24s0,.23-.06.3-.12,0-.14.07a.17.17,0,0,0,.06.16c.08.08.19.12.26.21s0,.1.06.16a.2.2,0,0,0,.13.14c.1.05.25.12.2.26s-.2.13-.21.25.09.28.19.15,0-.1.12-.08.06.06.06.12a2.16,2.16,0,0,1,0,.36,2.2,2.2,0,0,0,0,.44.5.5,0,0,1,0,.38c0,.09-.14.17-.12.28a.91.91,0,0,0,.07.14.31.31,0,0,1,0,.13c0,.15.1.2.15.32a.81.81,0,0,1,0,.38.86.86,0,0,0,0,.39.44.44,0,0,0,.15.12,1.11,1.11,0,0,0,.26.07.28.28,0,0,0,.2,0c.07,0,.08-.15.11-.22s.11-.24.24-.17.06.06.12.07a.21.21,0,0,0,.16-.08c.06-.05.13-.25.23-.22s0,.09,0,.15.08.06.12.1-.09.2-.07.32.18.19.3.21a.57.57,0,0,1,.31.15c.08.11,0,.26.16.35s.24,0,.33.16a.35.35,0,0,1,.05.31.48.48,0,0,0,.06.33.3.3,0,0,1,0,.33c0,.05-.07.08-.06.15a2.06,2.06,0,0,0,.12.35.29.29,0,0,1,0,.24c0,.11-.07.22,0,.3s.15.08.17.15,0,.18,0,.26,0,.24-.06.34-.1.06-.11.14a.25.25,0,0,0,.06.2c.09.11.22.18.31.29a4,4,0,0,1,.23.34,1.79,1.79,0,0,0,.27.28c.12.11.11.22.13.37a1.47,1.47,0,0,0,.1.4,5.91,5.91,0,0,1,.13.94.82.82,0,0,1-.13.4c-.06.1-.19.2-.17.33a.49.49,0,0,0,.11.2.71.71,0,0,1,.08.18c0,.16.07.17.22.2a.17.17,0,0,1,.14.18,0,0,0,0,1,0,0c0,.13-.14.25-.13.39a.61.61,0,0,0,.42.55,2.42,2.42,0,0,1,.4.19.78.78,0,0,0,.15.1l.16,0c.23.07.36.33.61.32s.25-.06.33,0,.22.74.36.79.1,0,.15,0a.16.16,0,0,1,.14.05.58.58,0,0,0,.26.18.55.55,0,0,1,.28.12.57.57,0,0,1,.12.15,1,1,0,0,0,.08.18.58.58,0,0,1,.12.1s.06.09.1.13.11-.12.09-.2a2.11,2.11,0,0,1,0-.26.07.07,0,0,1,0-.07c.1,0,.1.19.15.26s.1.06.15.1.09.13.15.19a1,1,0,0,1,.22.27c0,.06.11.32,0,.35s-.19-.22-.28-.25-.09,0-.09.1a.86.86,0,0,0,.05.42c0,.08.19.1.1.21s-.19.17-.08.25.07,0,.11-.05a.38.38,0,0,1,.15,0,.28.28,0,0,1,.15,0s0,.1,0,.14.06,0,.15.05a.36.36,0,0,1,.17.07c.11.09,0,.2,0,.3s.2.1.21.26-.12.24-.08.37.2.19.23.33a.36.36,0,0,1-.08.33c-.1.13,0,.19.07.29a.58.58,0,0,1,.13.3c0,.09,0,.19,0,.28s0,.1.09.16-.09.24,0,.34.18-.13.24-.16.39.62.5.45,0-.14,0-.21l0-.22a.57.57,0,0,0,0-.18.64.64,0,0,1-.1-.13c0-.07-.14-.3,0-.31s.36.28.39.33,0,.1.07.15a3.86,3.86,0,0,0,.49.5.38.38,0,0,0,.12.1h.09s.05-.05.07-.05.24.39.2.5a.44.44,0,0,0,0,.3c0,.1.1.2.07.31s-.15.18-.16.29.16.28,0,.33-.17,0-.18.06.1.08.16.09a2,2,0,0,1,.35.06.32.32,0,0,1,.19.29c0,.12,0,.23.08.32s.59.5.71.47.05,0,.09-.08.14,0,.17.07.07.2.17.23.07,0,.11.05a.24.24,0,0,1,0,.14c0,.12,0,.24,0,.35a1.07,1.07,0,0,0,.25.27,1.93,1.93,0,0,1,.22.28,2.11,2.11,0,0,1,.21.31c0,.05,0,.13.05.17s.12,0,.15.1-.14.25-.09.34.24.06.32.1a.32.32,0,0,1,.15.13,2,2,0,0,1,.1.42.77.77,0,0,1,0,.3,1,1,0,0,0,0,.39c0,.05,0,.13.07.14s.09-.06.16-.06,0,.24,0,.34a2,2,0,0,0-.11.42,4,4,0,0,0,0,.85c0,.12.06.25.1.37a.35.35,0,0,1,0,.2c0,.07-.07.08-.12.12s0,.23-.06.35,0,.18.15.26.14.3.17.46a2.06,2.06,0,0,1,.11.65.6.6,0,0,0,0,.23l.19.27c.09.13,0,.31,0,.45a.86.86,0,0,0,0,.23c0,.08,0,.11.08.18s-.1.27-.13.42,0,.26-.14.36l-.15.08a.65.65,0,0,0-.18.19.93.93,0,0,0,0,.44c0,.2,0,.42,0,.62a2.26,2.26,0,0,1-.15.39c0,.06-.12.14-.1.22a.63.63,0,0,1-.06.27c-.05.08-.14.13-.2.21a.9.9,0,0,0-.13.28,1.23,1.23,0,0,0-.13.41,1.09,1.09,0,0,0,0,.18c0,.09.05.06.09.11s0,.1,0,.16,0,.09.07.15-.08.26-.17.32-.32.16-.27.3.06.1,0,.16-.1.07-.15.09a.25.25,0,0,0-.17.11.46.46,0,0,0-.07.16v.17a.43.43,0,0,1,0,.16,1,1,0,0,1-.26.27.37.37,0,0,0-.13.15,1.06,1.06,0,0,1,0,.19c-.06.09-.27.09-.17.24s.09.07.1.14a.15.15,0,0,1,0,.14,1.13,1.13,0,0,1-.5.33s-.18,0-.21.11.16.16,0,.28a.61.61,0,0,1-.36.15.47.47,0,0,0-.22.09s0,.11,0,.17-.19.22-.31.3,0,.26-.1.38-.28.2-.39.33a1.05,1.05,0,0,0-.15.43,1.62,1.62,0,0,1-.12.43,3.62,3.62,0,0,1-.19.4c-.07.12-.15.23-.22.34s-.11.48-.27.66c0,0,0,0,0,.06a1.08,1.08,0,0,0-.16.3.63.63,0,0,1-.1.3,1.48,1.48,0,0,0-.12.29l-.1.17-.06.15c-.15.28-.42.45-.59.72a.92.92,0,0,0-.13.36,2.41,2.41,0,0,1-.07.37.33.33,0,0,0,0,.17.37.37,0,0,1,0,.18.44.44,0,0,0,0,.2.25.25,0,0,1,0,.17c-.06.13-.23.16-.28.28a.28.28,0,0,0,0,.18.23.23,0,0,1,0,.18c-.05.12-.16.17-.14.32a1.14,1.14,0,0,0,.16.31c.07.15-.06.18-.17.2s-.09.16,0,.24.12.22,0,.26-.2,0-.26.13a.48.48,0,0,1-.24.2,1.43,1.43,0,0,1-.65,0,3.88,3.88,0,0,1-.48,0,2.79,2.79,0,0,0-.4-.07,1.39,1.39,0,0,0-.5,0,.54.54,0,0,0-.36.14c-.07.08-.17.15-.28.08s-.17-.18-.32-.13-.08.07-.13.1L190,267c0,.1.22,0,.25,0s-.42.38-.5.42l-.31.13a.87.87,0,0,0-.33.33c-.15.19-.43.5-.71.4a.59.59,0,0,0-.32-.09c-.11,0-.26.09-.17.22a.2.2,0,0,0,.16.07c.07,0,.1-.06.16-.07s0,.2,0,.27a.29.29,0,0,0,0,.16v.1c0,.05,0,0-.07,0s0,.1,0,.16,0,.17-.07.12a3.41,3.41,0,0,1-.27-.69c0-.09-.07-.16-.15-.12s0,.08-.1.11a.14.14,0,0,1-.15,0c-.06-.06,0-.11,0-.18a.29.29,0,0,0-.28-.23c-.11,0-.25,0-.34-.05a.36.36,0,0,1,0-.36c0-.07.21-.25.09-.3s-.12,0-.14,0,0-.12.05-.17,0-.32-.15-.27-.11.26-.15.33a.38.38,0,0,1-.24.22c-.1,0-.2.14-.31.13a.2.2,0,0,1-.15-.1s-.1-.09-.14-.14.09-.13.2-.14a.21.21,0,0,0,.15-.07s0-.11.09-.14.13,0,.16,0a.13.13,0,0,0,0-.15c-.07-.09-.18-.1-.2-.22s0-.38-.11-.17a.51.51,0,0,1-.23.27c-.11.06-.26.06-.38.11s-.11.06-.06.11.12,0,.17,0a.45.45,0,0,1,.16,0s.1.08,0,.1-.25,0-.35.08a1.35,1.35,0,0,0-.26.15l-.35.26c-.11.1-.2.23-.31.34a1.26,1.26,0,0,1-.38.27.26.26,0,0,1-.33,0c-.12-.09-.2,0-.33,0a.73.73,0,0,1-.34-.14c-.09-.06-.23-.15-.27-.26s0-.09-.08-.14-.14,0-.2-.09-.05-.21-.13-.3-.24,0-.33.05a.62.62,0,0,1-.5,0,.39.39,0,0,1-.17-.14c-.05-.07-.1-.15-.19-.14a.26.26,0,0,0-.18.16c0,.09,0,.18-.12.25a.15.15,0,0,1-.21,0c-.11-.08-.12-.2-.17-.31a.28.28,0,0,0-.11-.15c-.06,0-.11,0-.16-.07s-.09-.2-.22-.23a2.71,2.71,0,0,0-.4,0,1,1,0,0,1-.38-.07s0-.1-.06-.15-.11-.05-.16-.09,0-.25-.08-.33a.45.45,0,0,0-.24-.23l-.3-.23a2.34,2.34,0,0,1-.24-.31.91.91,0,0,1-.17-.34,2.43,2.43,0,0,1,0-.38.82.82,0,0,1,0-.22c0-.05.05-.09.06-.14a1.14,1.14,0,0,0,.08-.33,1.2,1.2,0,0,0,0-.46,2.11,2.11,0,0,0-.39-.74,4.14,4.14,0,0,1-.38-.35c-.07-.1-.1-.23-.21-.29s-.28-.09-.25-.22.16-.16.26-.17a.35.35,0,0,0,.27-.17c0-.07.3-.3.23-.34s-.24.1-.36.14a1.73,1.73,0,0,0-.32.11c-.13.05-.13.21-.26.27s-.24,0-.35,0-.63.25-.8.18-.2-.15-.11-.26.08,0,.14,0,.05-.05.09-.09.17-.06.23-.14,0-.53.11-.74c0-.05.08-.06.08-.13s-.08-.08-.1-.14.07-.21.07-.32c0-.29-.31-.38-.43-.59s-.05-.26-.12-.39-.18-.24-.24-.12,0,.13,0,.18-.09,0-.1.13a1.16,1.16,0,0,1,0,.37c0,.12-.16.21-.16.35s.07.29,0,.41-.1.07-.12.13a.6.6,0,0,0,0,.19c0,.11,0,.27-.13.32s-.2-.09-.27-.15-.2,0-.3.07a.18.18,0,0,1-.16.08.47.47,0,0,0-.17,0c-.09.05-.16.19-.28.19s-.1,0-.12-.06.06-.11.08-.17,0-.12,0-.18.09-.07.13-.11-.08-.27.11-.29.25,0,.37,0,.17-.1.19-.21.06-.52.07-.56a.17.17,0,0,0,0-.1c0-.06-.09-.1-.1-.16a.28.28,0,0,1,.09-.23c.08-.09.06-.13,0-.24a.35.35,0,0,1,0-.26s.08-.06.09-.13a.39.39,0,0,1,0-.18,1,1,0,0,1,.26-.29l.31-.31c0-.05.08-.09,0-.15s-.1-.05-.12-.11,0-.1,0-.16-.07-.06-.05-.13a.42.42,0,0,1,.24-.23c.1,0,.27,0,.14-.18s-.2-.08-.24-.19.05-.23.05-.34-.15-.12-.18-.24,0-.39-.16-.27,0,.28,0,.36a.38.38,0,0,1,0,.33c-.06.1-.19.06-.29.1s-.26.43-.33.62a2.53,2.53,0,0,1-.18.37c0,.12-.07.24-.1.37s-.18.07-.3,0a.29.29,0,0,0-.31.11,1.84,1.84,0,0,1-.27.34c-.11.09-.26.13-.37.23s-.08.25-.13.4a.21.21,0,0,1-.1.13c-.07,0-.12,0-.16.07s0,.24-.05.35a.3.3,0,0,1,0,.18c0,.05-.1,0-.16,0s-.2.1-.21.23.18.07.25.18,0,.28-.13.35-.2-.07-.3-.1-.22,0-.34,0-.14-.11-.17-.23a.39.39,0,0,0-.2-.28c-.09,0-.3,0-.25-.19s.2,0,.29,0,.06-.07.06-.13-.17-.38-.2-.5a1.93,1.93,0,0,1,0-.34.73.73,0,0,0-.15-.35,2.13,2.13,0,0,0-.3-.3,1.46,1.46,0,0,1-.28-.21c-.06-.08,0-.27,0-.37a.65.65,0,0,0-.16-.32.62.62,0,0,0-.33-.17.25.25,0,0,1-.17,0s-.08-.1-.14-.08,0,.12-.11.08-.06-.09-.08-.13-.11-.22-.17-.33-.15-.18-.09-.3.06,0,.13,0,.09-.07.08-.14a.44.44,0,0,0-.13-.32c-.11-.11-.22-.06-.33,0s-.09.08-.15,0a.13.13,0,0,1,0-.17c0-.1.22-.07.13-.24a1,1,0,0,0-.57-.38c-.16,0-.23,0-.35.09a.42.42,0,0,1-.24.05s-.38-.27-.56-.34a1.09,1.09,0,0,0-.56-.09,1.78,1.78,0,0,0-.4.17c-.15.07-.23,0-.3-.12a1.21,1.21,0,0,0-.2-.3,1.57,1.57,0,0,0-.31-.18.78.78,0,0,1-.38-.23.24.24,0,0,0-.15-.09c-.07,0-.13.05-.2,0s-.18-.26-.33-.26-.26.14-.34.24-.18.23-.3.25-.74,0-1,0-.55.07-.84.1a4.27,4.27,0,0,0-1.05.27c-.37.16-.76.29-1.13.47a5.58,5.58,0,0,1-1,.46l-.43.1a1.57,1.57,0,0,1-.42.18,2.17,2.17,0,0,1-.36,0,5.16,5.16,0,0,1-.87.1,2.32,2.32,0,0,0-.37-.13,1.34,1.34,0,0,0-.4,0,2.54,2.54,0,0,0-.77.43c-.31.19-.61.41-.9.63a2.08,2.08,0,0,1-.93.51c-.33.08-.65.13-.8.48-.06.14-.06.31-.12.44s-.18.19-.19.3.08.24.05.38-.05.09-.11.14a.18.18,0,0,0-.09.13c0,.16-.19.08-.27.19s0,.27-.15.32-.22-.18-.29-.05,0,.29-.15.24-.16-.14-.23-.21l-.21-.09a.29.29,0,0,0-.16,0c-.15,0-.46.19-.66.24a.43.43,0,0,0-.26.13c-.06.06-.1.15-.2.16s-.17-.07-.18-.2a.21.21,0,0,0-.19-.22h0c-.27,0-.47.34-.76.19-.1,0-.15-.21-.28-.18s-.22.18-.37.2-.25-.06-.37,0-.07.11-.12.15a.26.26,0,0,1-.2,0H146a.36.36,0,0,0-.17.07.27.27,0,0,1-.17.06c-.12,0-.22-.08-.34-.08a1,1,0,0,0-.39.05.71.71,0,0,0-.46.58.64.64,0,0,1-.12.35,3.08,3.08,0,0,1-.43.38c-.07,0-.1,0-.16,0s-.23-.13-.33-.08-.09.21-.11.3c-.06.27-.35.26-.49.45a3.11,3.11,0,0,0-.2.41.7.7,0,0,1-.34.27c-.11,0-.15.15-.24.19s-.25,0-.36,0-.21.11-.34.1-.17-.11-.29-.19a.36.36,0,0,0-.35,0c-.08,0-.22.15-.29.14a.64.64,0,0,0-.36,0,.38.38,0,0,1-.33.06,1.12,1.12,0,0,0-.35-.12l-.4,0a1.06,1.06,0,0,1-.53-.49.38.38,0,0,0-.14-.14l-.15,0c-.12-.05-.21-.15-.33-.21l-.16,0s-.1-.06-.16-.08-.2.11-.32.1-.2-.12-.23-.24a1.58,1.58,0,0,0-.11-.37c-.06-.12,0-.26-.08-.38a.89.89,0,0,1-.11-.35c0-.09,0-.31.07-.37s.17.13.25.17.48-.18.56-.33a1.35,1.35,0,0,0,0-.77c0-.15-.05-.3-.09-.45a2.33,2.33,0,0,1-.06-.53,2,2,0,0,1,.1-.4.59.59,0,0,0,.07-.26,4.91,4.91,0,0,0-.06-.66,2.41,2.41,0,0,0-.31-.9c-.16-.27-.33-.54-.52-.8a3.57,3.57,0,0,0-.31-.37,1.71,1.71,0,0,1-.21-.4c-.13-.26-.52-1.12-.58-1.3a5.27,5.27,0,0,1-.1-.88,3.35,3.35,0,0,0-.11-.55,1.3,1.3,0,0,0-.15-.43.7.7,0,0,0-.32-.19.67.67,0,0,1-.3-.25,2.74,2.74,0,0,1-.2-.9.66.66,0,0,0-.21-.31c-.11-.07-.24-.08-.35-.15a.6.6,0,0,1-.28-.48c0-.1-.09-.58-.1-.63-.09-.57-.69-.83-1-1.3a7.52,7.52,0,0,0-.47-.64c-.13-.2-.29-.38-.44-.57s-.22-.15-.26-.28.09-.25.18-.14,0,.06.06.09.06,0,.08,0,0,.1.06.15.12.16.19.24a2,2,0,0,0,.24.26l.14.13a1,1,0,0,0,.1.15c.1.1.21,0,.25-.1a.62.62,0,0,0,0-.38.29.29,0,0,0-.17-.24c-.09-.05-.21-.08-.26-.18s-.06-.2-.15-.29a.64.64,0,0,1-.17-.3.49.49,0,0,0,0-.16c0-.05-.1,0-.15-.08s0-.26,0-.34.14-.07.22,0l.2.28a.86.86,0,0,1,.12.3.59.59,0,0,0,0,.19.64.64,0,0,0,.1.13c0,.05,0,.14.05.17s.1,0,.12-.07,0-.32.07-.31.1.26.12.31l.12.3c0,.09.14.2.26.13a.47.47,0,0,0,.14-.29,1.32,1.32,0,0,0-.05-.71.8.8,0,0,0-.23-.22.71.71,0,0,1-.13-.12l-.09-.12a2.83,2.83,0,0,0-.2-.28,2.76,2.76,0,0,1-.56-.83c-.14-.28-.32-.54-.45-.82a2.14,2.14,0,0,1-.26-.81,3,3,0,0,1,.12-.85c.07-.27.21-.5.26-.78a8.05,8.05,0,0,0,.18-1c0-.07,0-.13,0-.19a.73.73,0,0,0-.1-.28l-.16-.25a.47.47,0,0,1-.11-.25.58.58,0,0,1,.06-.26c0-.1.07-.2.1-.29a2.61,2.61,0,0,0,.16-.61,1.33,1.33,0,0,1,.18-.54.58.58,0,0,1,.17-.18c.11-.06.1.09.07.16a1.58,1.58,0,0,0-.08.57.43.43,0,0,0,.1.23.92.92,0,0,1,.09.23.45.45,0,0,1,0,.16,1.05,1.05,0,0,0,0,.19c0,.09,0,.21.07.15s.15-.11.22-.18a.55.55,0,0,0,.14-.17s.16-.29.17-.33l.09-.2a1.11,1.11,0,0,0,.13-.36.67.67,0,0,1,.12-.29.81.81,0,0,0,.16-.16c0-.06,0-.13.11-.18a1.6,1.6,0,0,1,.42-.1,2.51,2.51,0,0,0,.48-.32,3.43,3.43,0,0,0,.49-.28,1.8,1.8,0,0,0,.38-.4,1.64,1.64,0,0,1,.36-.55c.15-.11.36-.18.53-.28a2.53,2.53,0,0,0,.58-.38c.1-.1.28-.56.39-.45s-.28.37-.08.49.24-.25.4-.26.14.12.23.16a.46.46,0,0,0,.26,0c.23,0,.32.09.53-.05a3.4,3.4,0,0,0,.59-.4,2.85,2.85,0,0,0,.23-.26.39.39,0,0,1,.35-.11c.17,0,.19-.06.34-.13a.61.61,0,0,1,.33,0c.15,0,.2,0,.31-.08a3.24,3.24,0,0,0,.24-.31.67.67,0,0,1,.47-.3.78.78,0,0,1,.37,0c.15.07.27.23.33.17s.07-.1.11-.14a.75.75,0,0,1,.3-.17.17.17,0,0,0,.12-.06l.06-.11c.06-.06.15,0,.23,0a1.53,1.53,0,0,0,.52-.08,2.6,2.6,0,0,0,.62-.25c.36-.25.71-.52,1-.8a1.49,1.49,0,0,1,.12-.14,2.22,2.22,0,0,0,.2-.41.86.86,0,0,0,.09-.3.73.73,0,0,1,.06-.3c.06-.08.17,0,.22-.1s0-.07.08-.09a.14.14,0,0,0,.08-.07,2.17,2.17,0,0,0,0-.25.19.19,0,0,1,.16-.15,1.1,1.1,0,0,0,.42-.32c.12-.13.32-.23.34-.44a.34.34,0,0,0,0-.22c0-.05-.15-.37-.19-.47s0-.1-.05-.14a1.24,1.24,0,0,1-.1-.2.69.69,0,0,1,0-.25,1,1,0,0,1,.05-.24.7.7,0,0,1,.11-.23,1.54,1.54,0,0,1,.17-.19.45.45,0,0,1,.21-.15c.08,0,.15,0,.23,0s0-.13,0-.18-.13-.09-.12-.18,0-.19.14-.16.06,0,.09.06l.11,0a.24.24,0,0,0,.2-.06c.05-.06,0-.14,0-.18s-.15,0-.09-.14.19-.22.27-.33a.28.28,0,0,1,.2-.12.17.17,0,0,1,.1,0s0,.07,0,.1a.39.39,0,0,0-.1.19c0,.09.06.12.1.16s.13.14.13.25,0,.16,0,.19.08,0,.11,0a.1.1,0,0,1,.08.06.5.5,0,0,1,.08.2.58.58,0,0,0,.06.26s.1.09.12.16,0,.16,0,.24.09.09.15.14a.91.91,0,0,1,.17.17c0,.05.1.14.11,0a1.69,1.69,0,0,1,0-.23.65.65,0,0,1,.06-.21.17.17,0,0,0,0-.2.29.29,0,0,1-.07-.22s0-.19.11-.16.1.13.12.19a.5.5,0,0,0,.08.2.41.41,0,0,0,.19.13c.05,0,.16.07.21,0s-.08-.1-.12-.12a.39.39,0,0,1-.17-.14h0a.47.47,0,0,1,0-.17s0-.1,0-.15a.23.23,0,0,1,0-.16,1.7,1.7,0,0,0,.14-.1s.11-.1.08-.13-.12.08-.18.08a.18.18,0,0,1-.18-.08c0-.05-.06-.13-.1-.17s-.07,0-.09,0a.09.09,0,0,1-.1,0,.5.5,0,0,1-.14-.15s-.12-.09-.15-.15,0-.16.1-.15.11.1.2.08-.19-.16-.12-.22.22.1.27,0-.13-.18-.17-.2a.31.31,0,0,1-.18-.09c0-.06.11-.07.16-.09s.3-.25.33-.07a.42.42,0,0,0,.06.21l.07.08a.3.3,0,0,1,0,.1.11.11,0,0,0,.13.1h0c.09,0,0-.33.07-.37s.14,0,.18,0a1.37,1.37,0,0,1,.2.22c.08.1.16.08.27.1s.22.19.24.14-.12-.3,0-.3.18.1.25.13a.63.63,0,0,0,.3.05c.06,0,.36,0,.32-.07s-.21,0-.27-.07-.1-.11-.16-.15-.44.16-.5-.06,0-.22.08-.24.22.06.26-.06,0-.18,0-.28.07-.15.19-.15a.23.23,0,0,0,.14,0s0-.09,0-.14a.2.2,0,0,0,0-.13.58.58,0,0,0-.05-.14c0-.05-.14-.24-.19-.13s0,.11,0,.15a.33.33,0,0,1-.05.12c-.06.07-.14.12-.2.19s-.11.24-.16.19a1.38,1.38,0,0,1-.12-.56.91.91,0,0,1,.06-.32.28.28,0,0,1,.09-.1,2.28,2.28,0,0,0,.36,0s0-.08,0-.11,0-.13.05-.14l.12,0a.71.71,0,0,1,.14.1,1.1,1.1,0,0,1,.14.21.09.09,0,0,0,.06,0l.16,0a.41.41,0,0,1,.16,0,.65.65,0,0,1,.08.09s.17.16.2.05-.13-.19-.18-.24l-.08-.09a1,1,0,0,1-.07-.15c-.06-.05-.16,0-.17-.14s0-.15.13-.21.13-.12.25-.08.16.09.24.12.24.08.3,0-.09-.15-.14-.17,0-.11,0-.17-.09-.09-.16-.09-.15,0-.18-.14-.17-.08-.22-.16,0-.13.11-.18,0-.12.11-.17.14,0,.2-.06,0-.14.1-.19a.12.12,0,0,1,.13,0c.06,0,.06.08.11.11s.09-.14.07-.19-.12-.16-.1-.26.08-.17.17-.09.07.18.16.22a.77.77,0,0,1,.15,0,.16.16,0,0,1,.06.13,1.5,1.5,0,0,0,0,.29c0,.11.16.1.21,0a.9.9,0,0,0,0-.28l0-.3c0-.2-.07-.46.07-.59s.1.23.12.3,0,.13.08.15.16-.1.15-.18,0-.08,0-.13,0-.06.09-.07a.26.26,0,0,0,.12-.05s.05-.09.1-.1.08.16.08.22,0,.26.1.26.2-.4.28-.43.21.1.24,0a.55.55,0,0,0-.13-.25c-.05,0-.2-.14-.17-.19s.21,0,.26,0a1,1,0,0,1,.51.22c.06.06.1.16.2.15a.14.14,0,0,0,.12-.06s0-.07.09-.08a.31.31,0,0,1,.25.14c.06.09.11.18.16.27s.08.18.2.2.14.08.2.17a.92.92,0,0,0,.16.27c.06,0,.4.26.56.4a.11.11,0,0,1,0,.07.47.47,0,0,1,0,.24,1.81,1.81,0,0,0-.15.64.44.44,0,0,1-.05.15.19.19,0,0,0-.07.12c0,.1-.08.57.05.53a.35.35,0,0,0,.14-.2,2,2,0,0,1,.13-.25c0-.09.11-.21.2-.07s0,.07.07,0a1.36,1.36,0,0,0,.06-.29.6.6,0,0,0-.06-.11c-.07-.18.43-.05.52-.1s-.2-.43-.21-.53.12-.07.19,0a.73.73,0,0,1,.26.14c.08.07.1.12.21.07a.23.23,0,0,1,.14,0,1.14,1.14,0,0,1,.26.09.44.44,0,0,1,.21.27c0,.09,0,.15,0,.24s.1,0,.15,0,.07,0,.1-.06,0-.09,0-.12.22,0,.16-.11-.12-.14-.2-.2-.14-.18,0-.2a.52.52,0,0,1,.27.07.6.6,0,0,1,.23.19,1,1,0,0,1,.11.28c0,.12,0,.19.11.23s.22,0,.26.14,0,.17.15.23a.54.54,0,0,0,.28,0s.11,0,.13,0,0-.06-.09-.07a.82.82,0,0,1-.24-.1.6.6,0,0,1-.19-.23,1.14,1.14,0,0,0-.15-.23c-.14-.18-.16-.35.05-.48s.21-.06.26-.14-.11-.11-.18-.1-.23,0-.23-.1.2-.1.1-.22-.22,0-.29,0a.16.16,0,0,1-.13,0s0-.08-.07-.1-.08,0-.11-.06a.33.33,0,0,1,0-.14,1.09,1.09,0,0,1,.07-.3c.05-.14.15,0,.23,0s.11-.14.16-.22.15-.1.19-.19a6.13,6.13,0,0,0,0-.74.28.28,0,0,1,.05-.23c.13-.14.28.1.42.08s.2-.29.41-.28.21,0,.22-.07a.26.26,0,0,0-.13-.22c-.07,0-.18,0-.24-.1a.28.28,0,0,1,0-.28c0-.06.17-.17.25-.27s.16-.29.2-.3.13,0,.18,0,0-.14,0-.2.12-.35.23-.24,0,.61.19.43,0-.19,0-.28.11-.12.19-.06.11.12.19.18.21.1.16,0a.4.4,0,0,0-.16-.22c-.05,0-.2-.1-.17-.18s.18,0,.24,0,.11,0,.13,0,0-.09,0-.12a.2.2,0,0,1,0-.26.29.29,0,0,1,.27,0c.09,0,.41.22.5.27a1.48,1.48,0,0,0,.27.1h.15l.25-.07a.33.33,0,0,1,.33,0,.44.44,0,0,0,.19.07c.06,0,.16,0,.17-.06s0-.14,0-.19.3.35.4.16,0-.17.14-.23.23,0,.3-.05-.06-.16-.07-.25a.3.3,0,0,1,0-.13s.06,0,.07-.09-.1-.15-.15-.22,0-.09,0-.12.09,0,.12,0-.26-.35-.34-.38l-.14,0-.13-.05a.31.31,0,0,0-.26.07c-.06.07-.06.21-.2.17s-.08-.18-.13-.26-.13-.1-.18-.19a.28.28,0,0,0-.08-.11s-.08,0-.12-.05.12-.1.17-.11a.6.6,0,0,1,.27-.06.19.19,0,0,1,.18.15s0,.11,0,.11.05-.07.06-.1.07-.21.18-.12,0,.21.1.23.1,0,.14,0l.14.05c.08.06.06.13.1.21a.63.63,0,0,0,.22.18c.07,0,.05,0,.08-.07a.12.12,0,0,1,.12,0s.12,0,.14,0,0-.09,0-.13.15-.06.2,0a1,1,0,0,1,.16.24c0,.1,0,.17.1.24s.35.12.51.23.13.16.19.17.64-.22.71-.1,0,.12.05.16.14,0,.2,0a.21.21,0,0,1,.19,0c.07,0,.06.08,0,.16l0,0c0,.1-.13.23,0,.26s.11.08.15.14,0,0,.06,0a.11.11,0,0,0,.07-.06c0-.06,0-.11-.06-.15a.09.09,0,0,1,0-.13h0l.1,0a1.05,1.05,0,0,1,.34.08s.08.09.13.12a.08.08,0,0,0,.12,0v0c0-.1,0-.25.15-.26s.11,0,.12.12-.05.35.11.23.08-.09.17-.05a.27.27,0,0,1,.1.17c0,.15.05.25.24.2a.25.25,0,0,1,.19,0c.06,0,.06.14.15.1a.25.25,0,0,0,.1-.32c0-.05-.12-.1-.06-.17s.13,0,.18,0,.21,0,.31-.11.25-.2.37-.15,0,.07,0,.11-.26.18-.27.32,0,.24.11.25.15-.06.2-.14a1.77,1.77,0,0,0,.12-.17l.06-.08c.11-.06.09.06.12.1s.3,0,.19.22-.3.23-.12.3.32-.08.37.08,0,.19.09.11.06-.13.08-.17a.93.93,0,0,0,.12-.4.3.3,0,0,0,0-.19s-.15,0-.16-.06.12-.09.08-.14-.22,0-.13-.1.3,0,.4-.08.08-.27.19-.34.09.26.08.32a.23.23,0,0,0,0,.2c0,.07.07.09.09.17s0,.17.1.11a.86.86,0,0,0,.13-.14s.09-.11.16-.1.06.09.06.17.17.23.11.37-.22.17-.31.24a.37.37,0,0,0-.13.15c0,.07,0,.14,0,.2s-.31,0-.38.14,0,.13,0,.18-.06.13,0,.17.44-.07.36.09-.15,0-.23,0a.31.31,0,0,0-.17.15c-.06.09-.11.27-.25.24s0-.33-.09-.32,0,.35-.18.28-.08-.32-.2-.13-.13.3-.27.12-.21,0-.17.16.27.13.14.3-.27.1-.3.2,0,.11.08.16,0,.1.08.16.2-.07.23-.14.06-.14.12-.08,0,.14,0,.18" style="fill:none"/></clipPath><clipPath id="clip-path-7" transform="translate(-130.4 -212.42)"><path d="M131.29,245.12c-.07-.07-.12-.15-.18-.22a3.09,3.09,0,0,1-.14-.32c0-.05-.12-.15-.19-.08s0,.25,0,.34.09.24.13.37.1.32.28.39a.16.16,0,0,0,.21-.11h0a.48.48,0,0,0-.12-.36" style="fill:none"/></clipPath><clipPath id="clip-path-8" transform="translate(-130.4 -212.42)"><rect x="126.33" y="208.29" width="80.33" height="75.43" style="fill:none"/></clipPath><clipPath id="clip-path-9" transform="translate(-130.4 -212.42)"><path d="M132.72,244.92c0-.07-.12-.2-.2-.15a.22.22,0,0,0-.05.08.31.31,0,0,0,0,.19.19.19,0,0,0,.1.12.14.14,0,0,0,.14-.07.25.25,0,0,0,0-.17" style="fill:none"/></clipPath><clipPath id="clip-path-11" transform="translate(-130.4 -212.42)"><path d="M131.11,243.73a.32.32,0,0,0,0-.09l0,0H131a.16.16,0,0,0,0,.07,2,2,0,0,0,0,.26s0,0,0,.05a.08.08,0,0,0,.08,0h0a.35.35,0,0,0,0-.28" style="fill:none"/></clipPath><clipPath id="clip-path-13" transform="translate(-130.4 -212.42)"><path d="M131.08,243c-.09,0-.13.06-.14.13a.47.47,0,0,0,0,.17.13.13,0,0,0,.06.09c.1,0,.12-.09.13-.16a.24.24,0,0,0-.07-.23" style="fill:none"/></clipPath><clipPath id="clip-path-15" transform="translate(-130.4 -212.42)"><path d="M134.61,234c-.11,0-.19.11-.26.17a.8.8,0,0,0-.15.17.49.49,0,0,0,0,.12c0,.12.18.31.31.23a.16.16,0,0,0,.09-.13v-.11a.26.26,0,0,1,.07-.15c.07-.09.11-.28,0-.3" style="fill:none"/></clipPath><clipPath id="clip-path-17" transform="translate(-130.4 -212.42)"><path d="M137.43,233.12h0a.06.06,0,1,0,0,.11s0,0,0,0h0a.06.06,0,0,0,0-.07h0" style="fill:none"/></clipPath><clipPath id="clip-path-19" transform="translate(-130.4 -212.42)"><path d="M150.78,222.65a.41.41,0,0,0-.19,0,.13.13,0,0,0-.06.07.12.12,0,0,0,0,.1.18.18,0,0,0,.19.09c.07,0,.17,0,.18-.14s-.07-.15-.14-.16" style="fill:none"/></clipPath><clipPath id="clip-path-21" transform="translate(-130.4 -212.42)"><path d="M151.86,221c-.07,0-.1.11-.11.16s0,.23,0,.29.17-.08.19-.16.06-.32-.11-.29" style="fill:none"/></clipPath><clipPath id="clip-path-22" transform="translate(-130.4 -212.42)"><rect x="126.33" y="208.29" width="80.33" height="75.43" style="fill:none"/></clipPath><clipPath id="clip-path-23" transform="translate(-130.4 -212.42)"><path d="M151.72,222.07c-.09,0-.13.09-.17.15s-.08.06-.12.08a.22.22,0,0,0-.1.11.09.09,0,0,0,0,.07s0,.06.08.06a.47.47,0,0,0,.17,0,.33.33,0,0,0,.18-.22c0-.06,0-.18,0-.21" style="fill:none"/></clipPath><clipPath id="clip-path-25" transform="translate(-130.4 -212.42)"><path d="M165.65,214.45a.12.12,0,0,0-.14-.11.14.14,0,0,0-.1.07.41.41,0,0,0,0,.29.14.14,0,0,0,.11.09h.05a.48.48,0,0,0,.06-.33" style="fill:none"/></clipPath><clipPath id="clip-path-27" transform="translate(-130.4 -212.42)"><path d="M173.38,214.1a0,0,0,0,0-.07,0h0c-.08.08,0,.19-.09.29a.79.79,0,0,1-.14.23c-.08.07-.2.15-.22.26a.13.13,0,0,0,.19.11.67.67,0,0,0,.25-.35c.06-.16.19-.36.1-.53" style="fill:none"/></clipPath><clipPath id="clip-path-29" transform="translate(-130.4 -212.42)"><path d="M171.82,215.57c0-.12-.14-.08-.2,0a.92.92,0,0,0-.14.13,1.44,1.44,0,0,1-.32.23.07.07,0,0,0,0,.08.05.05,0,0,0,.05,0h.06c.25,0,.59-.11.56-.44" style="fill:none"/></clipPath><clipPath id="clip-path-31" transform="translate(-130.4 -212.42)"><path d="M172.8,215.18c0-.08-.12-.08-.17,0a.47.47,0,0,0-.1.1,1,1,0,0,1-.2.14c-.11.06-.16.27-.29.27s-.12,0-.14.08v.06a.05.05,0,0,0,0,.05.08.08,0,0,0,.1,0c.14,0,.18-.12.26-.22s.57-.2.51-.46" style="fill:none"/></clipPath><clipPath id="clip-path-33" transform="translate(-130.4 -212.42)"><path d="M167.91,255.22a.21.21,0,0,0-.13-.13.13.13,0,0,0-.13,0,.08.08,0,0,0,0,.12h0a.17.17,0,0,0,.1.06.38.38,0,0,0,.15,0,.06.06,0,0,0,0-.07" style="fill:none"/></clipPath><clipPath id="clip-path-35" transform="translate(-130.4 -212.42)"><path d="M175.13,261.87a.19.19,0,0,0-.13.05c-.12.08-.14,0-.22,0s-.26,0-.28-.1a.22.22,0,0,0-.08-.13.69.69,0,0,0-.49,0c-.25.07-.48.1-.72.18s-.39,0-.5.06,0,.24,0,.35l0,0,0,.07a.38.38,0,0,0,.31.22c.12,0,.06-.1.27-.05a.85.85,0,0,0,.23,0l.26-.1c.14-.05.24.14.37.14a.25.25,0,0,0,.26-.2.32.32,0,0,1,.29-.18h.14c.08,0,.1.09.22.11a.19.19,0,0,0,.2-.07.25.25,0,0,0-.06-.35.28.28,0,0,0-.15,0" style="fill:none"/></clipPath><clipPath id="clip-path-37" transform="translate(-130.4 -212.42)"><path d="M172,260.39a.13.13,0,0,0-.09.14.86.86,0,0,0,.06.23c.1.12.19-.06.21-.14s-.06-.26-.18-.23" style="fill:none"/></clipPath><clipPath id="clip-path-39" transform="translate(-130.4 -212.42)"><path d="M190.94,272.42a.61.61,0,0,0-.37-.23.33.33,0,0,0-.21.07c-.06.05-.1.14-.19.1s-.07-.1-.14-.12a.2.2,0,0,0-.2,0c-.06.05-.1.13-.18.17a.48.48,0,0,1-.21.07,3.78,3.78,0,0,0-.47.06.66.66,0,0,0-.2.06c-.07,0-.08.12-.15.17s-.13,0-.22,0a.59.59,0,0,0-.23.05.56.56,0,0,1-.4-.05c-.14,0-.28,0-.42-.1a1.39,1.39,0,0,1-.32-.27,2,2,0,0,0-.72-.42s-.42-.39-.76-.26a.2.2,0,0,0-.08.08,2.13,2.13,0,0,0-.1.56,3.32,3.32,0,0,0,.13.7,1.11,1.11,0,0,0,.16.39c0,.05.07.11.12.17s.1.08.12.13,0,.14,0,.21.18.35.21.44,0,.14,0,.2a.82.82,0,0,0,.21.36c.09.11.27.19.31.33s-.14.14-.23,0-.14-.29-.25-.36-.14,0-.14,0,.08.15.1.22a2.36,2.36,0,0,1,0,.46c0,.17.15.25.2.4a.62.62,0,0,0,.1.22l.13.15c.06.12.23.8.49.85a1.1,1.1,0,0,1,.18,0c.1,0,.09,0,.11.12.09.3.38.1.57.3s.06.12.16.11.11-.07.19-.06.22.23.35.09a.56.56,0,0,0,0-.42c0-.17,0-.31.22-.25s.2.18.22.34,0,.17.08.19.14-.05.16-.11-.2-.21-.11-.38.09-.09.1-.15,0-.14,0-.21a.21.21,0,0,1,.06-.21c0-.05.12-.05.15-.13s0-.21.07-.17.07.12.1.15.14.1.15.17-.1,0-.16.08.06.35.16.4a.26.26,0,0,0,.36-.12h0a.61.61,0,0,0,0-.46,1.08,1.08,0,0,1,0-.44c0-.22.24,0,.34-.13s-.13-.12-.21-.15-.11-.21,0-.3a.43.43,0,0,0,.17-.35c0-.11,0-.43.14-.25s.14.43.21.32,0-.27,0-.42.08-.29.13-.43a1.82,1.82,0,0,0,.06-.46c0-.17,0-.31,0-.48a2.07,2.07,0,0,0,0-.22c0-.22.14-.35.14-.56a.4.4,0,0,0-.06-.3" style="fill:none"/></clipPath><clipPath id="clip-path-41" transform="translate(-130.4 -212.42)"><path d="M184.47,269.38c-.15,0-.17.17-.16.29a.62.62,0,0,1-.06.3.24.24,0,0,0-.05.14c0,.14,0,.41.17.47s.24-.07.27-.22,0-.16.09-.17l.06,0a.2.2,0,0,0,0-.15c0-.15-.15-.65-.36-.64" style="fill:none"/></clipPath><clipPath id="clip-path-43" transform="translate(-130.4 -212.42)"><path d="M191.13,270.54c-.1-.1-.26-.1-.33-.23s-.11-.4-.27-.44a.06.06,0,0,0-.07,0h0c0,.11,0,.27-.1.34s-.08,0-.1.08a.12.12,0,0,0,0,.17h0c.09,0,0,.18,0,.27a.15.15,0,0,0,.06,0,.44.44,0,0,1,.19.07.22.22,0,0,1,0,.16.12.12,0,0,0,0,.09.18.18,0,0,0,.21.07c.22-.05.27-.24.27-.42s0-.21,0-.27" style="fill:none"/></clipPath><clipPath id="clip-path-45" transform="translate(-130.4 -212.42)"><path d="M191.21,271.4a.34.34,0,0,0-.3-.07.33.33,0,0,1-.17,0,.28.28,0,0,0-.13,0,.12.12,0,0,0-.06.16h0a.67.67,0,0,0,.23.1H191a.49.49,0,0,1,.17.06.12.12,0,0,0,.15-.07v0a.23.23,0,0,0-.1-.21" style="fill:none"/></clipPath><clipPath id="clip-path-47" transform="translate(-130.4 -212.42)"><path d="M190.92,271.8c0-.07-.11-.08-.18-.06s-.06,0-.07.05,0,.06,0,.09a.12.12,0,0,0,.1,0h.06l0,0a.09.09,0,0,0,0-.06" style="fill:none"/></clipPath><clipPath id="clip-path-48" transform="translate(-130.4 -212.42)"><rect x="126.33" y="208.29" width="80.33" height="75.43" style="fill:none"/></clipPath><clipPath id="clip-path-49" transform="translate(-130.4 -212.42)"><path d="M186.47,267.69a.18.18,0,0,0-.25,0,.17.17,0,0,0,0,.1.08.08,0,0,0,0,0,.16.16,0,0,0,.08.06h.13a.12.12,0,0,0,.09-.14.07.07,0,0,0,0-.06" style="fill:none"/></clipPath><clipPath id="clip-path-51" transform="translate(-130.4 -212.42)"><path d="M201.21,243.5a.87.87,0,0,1-.09.36c-.05.06-.1,0-.13-.05a.69.69,0,0,1,0-.25c0-.1,0-.21,0-.31s0-.21,0-.32a.34.34,0,0,1,0-.22c0-.08.12-.07.2-.1s.1-.27.1-.43,0-.46.18-.29-.06.33,0,.46.12.07.15.12,0,.15-.07.21a1.1,1.1,0,0,0-.27.38c0,.15-.08.3-.11.44" style="fill:none"/></clipPath><clipPath id="clip-path-53" transform="translate(-130.4 -212.42)"><path d="M198.3,239.8c.08-.05,0-.18,0-.23l-.11-.21a.6.6,0,0,0-.16-.23c-.06,0-.15-.06-.19,0s.05.14.1.19a.41.41,0,0,1,.1.13s.1.22.12.25.09.12.16.08" style="fill:none"/></clipPath><clipPath id="clip-path-55" transform="translate(-130.4 -212.42)"><path d="M197.36,237.28c0,.05.06.09.11.09s.08-.15.07-.21,0-.19-.12-.2a.06.06,0,0,0-.07,0,.12.12,0,0,0,0,.08.69.69,0,0,0,0,.2" style="fill:none"/></clipPath><clipPath id="clip-path-56" transform="translate(-130.4 -212.42)"><rect x="126.33" y="208.29" width="80.33" height="75.43" style="fill:none"/></clipPath><clipPath id="clip-path-57" transform="translate(-130.4 -212.42)"><path d="M197.3,236.84c0-.05,0-.2-.13-.2s-.13.1-.09.17.2.06.22,0" style="fill:none"/></clipPath><clipPath id="clip-path-59" transform="translate(-130.4 -212.42)"><path d="M194.73,232.6a.11.11,0,0,0-.1.12.11.11,0,0,0,.1.11.13.13,0,0,0,.11-.13.12.12,0,0,0-.11-.1" style="fill:none"/></clipPath><clipPath id="clip-path-61" transform="translate(-130.4 -212.42)"><path d="M194.68,232.25a.14.14,0,0,0-.11.13.13.13,0,0,0,.11.11.12.12,0,0,0,.1-.13.11.11,0,0,0-.1-.11" style="fill:none"/></clipPath><clipPath id="clip-path-63" transform="translate(-130.4 -212.42)"><path d="M190.75,229.33a.12.12,0,0,0-.11.13.12.12,0,0,0,.11.1.11.11,0,0,0,.1-.12.12.12,0,0,0-.1-.11" style="fill:none"/></clipPath><clipPath id="clip-path-65" transform="translate(-130.4 -212.42)"><path d="M190.24,228.65a.19.19,0,0,1,0-.1.24.24,0,0,0-.06-.11.2.2,0,0,0-.24-.05c-.09,0-.13.12-.06.19a.1.1,0,0,1,.05,0s0,.11,0,.16a.23.23,0,0,0,.17.16.19.19,0,0,0,.21-.06c.06-.09,0-.17-.07-.23" style="fill:none"/></clipPath><clipPath id="clip-path-67" transform="translate(-130.4 -212.42)"><path d="M185.64,271.4a.13.13,0,0,0-.11.13.12.12,0,0,0,.11.1.11.11,0,0,0,.1-.12.11.11,0,0,0-.1-.11" style="fill:none"/></clipPath><clipPath id="clip-path-69" transform="translate(-130.4 -212.42)"><path d="M185.84,271.14a.13.13,0,0,0-.11.13.12.12,0,0,0,.11.1.11.11,0,0,0,.1-.12.11.11,0,0,0-.1-.11" style="fill:none"/></clipPath><clipPath id="clip-path-71" transform="translate(-130.4 -212.42)"><path d="M172.64,219.66a.29.29,0,0,0,0-.09c0-.06,0-.1.06-.11s.09,0,.15,0,.21-.23.31-.18-.13.21,0,.26.14-.16.28-.09a.21.21,0,0,1,0,.3h0c-.08.06-.26,0-.3.08s.19.12.16.24-.1,0-.14.08a.08.08,0,0,0,0,.11l.05,0c.1,0,.25,0,.32.09s-.08.21-.19.23a1.13,1.13,0,0,1-.36-.06,1,1,0,0,0-.24,0c-.1,0-.2,0-.3,0s-.2-.06-.11-.15.17,0,.18-.13a2,2,0,0,1,0-.42c0-.1.11-.1.13-.12" style="fill:none"/></clipPath><clipPath id="clip-path-73" transform="translate(-130.4 -212.42)"><path d="M172,219.58c0-.05,0-.07.06-.1l.07,0a.27.27,0,0,0,.07-.08.13.13,0,0,1,.17,0,.13.13,0,0,1,.06.16.27.27,0,0,1-.21.2h-.07l-.09,0a.15.15,0,0,1-.05-.06" style="fill:none"/></clipPath><clipPath id="clip-path-75" transform="translate(-130.4 -212.42)"><path d="M172,218.86c0-.06,0-.17.09-.13a.23.23,0,0,1,.07.2s0,.07,0,.1,0,0-.06,0l0,0a.27.27,0,0,1-.06-.12" style="fill:none"/></clipPath><clipPath id="clip-path-77" transform="translate(-130.4 -212.42)"><path d="M173.37,222.74a.32.32,0,0,0-.22.1.41.41,0,0,0-.09.26c0,.09.07.19.17.14a.19.19,0,0,0,.09-.11s0-.08,0-.09.17,0,.19-.15-.09-.16-.18-.16" style="fill:none"/></clipPath><clipPath id="clip-path-79" transform="translate(-130.4 -212.42)"><path d="M173.59,223c-.07,0-.14.08-.15.17a.37.37,0,0,0,.09.21.14.14,0,0,0,.15,0,.19.19,0,0,0,.08-.15.23.23,0,0,0-.17-.23" style="fill:none"/></clipPath><clipPath id="clip-path-81" transform="translate(-130.4 -212.42)"><path d="M172.94,222.81a.23.23,0,0,0-.18,0,.24.24,0,0,0-.09.08.38.38,0,0,0,0,.1.14.14,0,0,0,.08.1.2.2,0,0,0,.13,0L173,223a.15.15,0,0,0,0-.19h0" style="fill:none"/></clipPath><clipPath id="clip-path-83" transform="translate(-130.4 -212.42)"><path d="M172.92,223.12s-.09,0-.11.06v0a.21.21,0,0,0,.07.13.2.2,0,0,0,.15,0l0,0a.2.2,0,0,0,0-.15.19.19,0,0,0-.11-.07" style="fill:none"/></clipPath><clipPath id="clip-path-85" transform="translate(-130.4 -212.42)"><path d="M178.06,225.66H178s0,0,0,0a.15.15,0,0,0-.18,0,.2.2,0,0,0,0,.2.27.27,0,0,0,.12.09.37.37,0,0,0,.18,0,.14.14,0,0,0,.11-.12.14.14,0,0,0-.11-.14" style="fill:none"/></clipPath><clipPath id="clip-path-87" transform="translate(-130.4 -212.42)"><path d="M178.23,224.55a.87.87,0,0,0-.28,0,.64.64,0,0,0-.33.1.4.4,0,0,0-.2.29.37.37,0,0,0,.05.23.31.31,0,0,0,.22.09c.12,0,.34,0,.36-.19a.2.2,0,0,0,0-.1s-.08-.09-.06-.13.2,0,.25,0a.11.11,0,0,0,.11-.13.11.11,0,0,0-.1-.11" style="fill:none"/></clipPath><clipPath id="clip-path-89" transform="translate(-130.4 -212.42)"><path d="M183.4,213.72s-.06-.1-.12-.12-.1.05-.11.1a1.5,1.5,0,0,0,0,.29s0,0,0,0,0,0,0,0a.17.17,0,0,0,.17,0,.26.26,0,0,0,.14-.15c0-.07,0-.12-.07-.16" style="fill:none"/></clipPath><clipPath id="clip-path-91" transform="translate(-130.4 -212.42)"><path d="M184,214s-.13-.15-.2-.1a.28.28,0,0,0-.11.17.2.2,0,0,0,0,.21.4.4,0,0,0,.15,0c.1,0,.29,0,.3-.16s-.1-.13-.15-.16" style="fill:none"/></clipPath><clipPath id="clip-path-93" transform="translate(-130.4 -212.42)"><path d="M183.2,212.85a.14.14,0,0,0-.18-.08h0a.06.06,0,0,0,0,.07.43.43,0,0,1,0,.11s0,0,0,0a.06.06,0,0,0,.07,0,.11.11,0,0,0,.11-.14v0" style="fill:none"/></clipPath><clipPath id="clip-path-95" transform="translate(-130.4 -212.42)"><path d="M183.48,212.79a.06.06,0,0,0-.07,0,.48.48,0,0,0,0,.12h0a.05.05,0,0,0,0,.06c.07,0,.14,0,.14-.09a.16.16,0,0,0-.11-.14" style="fill:none"/></clipPath><clipPath id="clip-path-96" transform="translate(-130.4 -212.42)"><rect x="126.33" y="208.29" width="80.33" height="75.43" style="fill:none"/></clipPath></defs><title>footer-map</title><g id="Aus_Map" data-name="Aus Map"><g style="clip-path:url(#clip-path)"><g id="Group_1145" data-name="Group 1145"><g style="clip-path:url(#clip-path-2)"><g id="Group_1144" data-name="Group 1144"><path id="Path_924" data-name="Path 924" d="M160.38,216.24h1.86v-1.68h-1.86Z" transform="translate(-130.4 -212.42)" style="fill:#c0c6c6"/></g></g></g></g><g style="clip-path:url(#clip-path-3)"><g id="Group_1147" data-name="Group 1147"><g style="clip-path:url(#clip-path-2)"><g id="Group_1146" data-name="Group 1146"><path id="Path_927" data-name="Path 927" d="M161.05,216.37h2.8v-2.14h-2.8Z" transform="translate(-130.4 -212.42)" style="fill:#c0c6c6"/></g></g></g></g><g style="clip-path:url(#clip-path-5)"><g id="Group_1149" data-name="Group 1149"><g style="clip-path:url(#clip-path-2)"><g id="Group_1148" data-name="Group 1148"><path id="Path_930" data-name="Path 930" d="M131,269.61h70.78V214H131Z" transform="translate(-130.4 -212.42)" style="fill:#c0c6c6"/></g></g></g></g><g style="clip-path:url(#clip-path-7)"><g id="Group_1151" data-name="Group 1151"><g style="clip-path:url(#clip-path-8)"><g id="Group_1150" data-name="Group 1150"><path id="Path_933" data-name="Path 933" d="M130.4,246h1.35v-1.82H130.4Z" transform="translate(-130.4 -212.42)" style="fill:#c0c6c6"/></g></g></g></g><g style="clip-path:url(#clip-path-9)"><g id="Group_1153" data-name="Group 1153"><g style="clip-path:url(#clip-path-2)"><g id="Group_1152" data-name="Group 1152"><path id="Path_936" data-name="Path 936" d="M132.12,245.5h.95v-1.08h-.95Z" transform="translate(-130.4 -212.42)" style="fill:#c0c6c6"/></g></g></g></g><g style="clip-path:url(#clip-path-11)"><g id="Group_1155" data-name="Group 1155"><g style="clip-path:url(#clip-path-8)"><g id="Group_1154" data-name="Group 1154"><path id="Path_939" data-name="Path 939" d="M130.59,244.37h.88v-1.1h-.88Z" transform="translate(-130.4 -212.42)" style="fill:#c0c6c6"/></g></g></g></g><g style="clip-path:url(#clip-path-13)"><g id="Group_1157" data-name="Group 1157"><g style="clip-path:url(#clip-path-8)"><g id="Group_1156" data-name="Group 1156"><path id="Path_942" data-name="Path 942" d="M130.6,243.7h.9v-1.08h-.9Z" transform="translate(-130.4 -212.42)" style="fill:#c0c6c6"/></g></g></g></g><g style="clip-path:url(#clip-path-15)"><g id="Group_1159" data-name="Group 1159"><g style="clip-path:url(#clip-path-2)"><g id="Group_1158" data-name="Group 1158"><path id="Path_945" data-name="Path 945" d="M133.85,235.07h1.21v-1.4h-1.21Z" transform="translate(-130.4 -212.42)" style="fill:#c0c6c6"/></g></g></g></g><g style="clip-path:url(#clip-path-17)"><g id="Group_1161" data-name="Group 1161"><g style="clip-path:url(#clip-path-2)"><g id="Group_1160" data-name="Group 1160"><path id="Path_948" data-name="Path 948" d="M137,233.58h.8v-.8H137Z" transform="translate(-130.4 -212.42)" style="fill:#c0c6c6"/></g></g></g></g><g style="clip-path:url(#clip-path-19)"><g id="Group_1163" data-name="Group 1163"><g style="clip-path:url(#clip-path-8)"><g id="Group_1162" data-name="Group 1162"><path id="Path_951" data-name="Path 951" d="M150.19,223.29h1.08v-1h-1.08Z" transform="translate(-130.4 -212.42)" style="fill:#c0c6c6"/></g></g></g></g><g style="clip-path:url(#clip-path-21)"><g id="Group_1165" data-name="Group 1165"><g style="clip-path:url(#clip-path-22)"><g id="Group_1164" data-name="Group 1164"><path id="Path_954" data-name="Path 954" d="M151.4,221.78h.93v-1.17h-.93Z" transform="translate(-130.4 -212.42)" style="fill:#c0c6c6"/></g></g></g></g><g style="clip-path:url(#clip-path-23)"><g id="Group_1167" data-name="Group 1167"><g style="clip-path:url(#clip-path-8)"><g id="Group_1166" data-name="Group 1166"><path id="Path_957" data-name="Path 957" d="M151,222.88h1.13v-1.15H151Z" transform="translate(-130.4 -212.42)" style="fill:#c0c6c6"/></g></g></g></g><g style="clip-path:url(#clip-path-25)"><g id="Group_1169" data-name="Group 1169"><g style="clip-path:url(#clip-path-2)"><g id="Group_1168" data-name="Group 1168"><path id="Path_960" data-name="Path 960" d="M165.05,215.14H166V214h-.94Z" transform="translate(-130.4 -212.42)" style="fill:#c0c6c6"/></g></g></g></g><g style="clip-path:url(#clip-path-27)"><g id="Group_1171" data-name="Group 1171"><g style="clip-path:url(#clip-path-22)"><g id="Group_1170" data-name="Group 1170"><path id="Path_963" data-name="Path 963" d="M172.5,215.34h1.25v-1.61H172.5Z" transform="translate(-130.4 -212.42)" style="fill:#c0c6c6"/></g></g></g></g><g style="clip-path:url(#clip-path-29)"><g id="Group_1173" data-name="Group 1173"><g style="clip-path:url(#clip-path-2)"><g id="Group_1172" data-name="Group 1172"><path id="Path_966" data-name="Path 966" d="M170.8,216.36h1.36v-1.21H170.8Z" transform="translate(-130.4 -212.42)" style="fill:#c0c6c6"/></g></g></g></g><g style="clip-path:url(#clip-path-31)"><g id="Group_1175" data-name="Group 1175"><g style="clip-path:url(#clip-path-8)"><g id="Group_1174" data-name="Group 1174"><path id="Path_969" data-name="Path 969" d="M171.56,216.21h1.59v-1.44h-1.59Z" transform="translate(-130.4 -212.42)" style="fill:#c0c6c6"/></g></g></g></g><g style="clip-path:url(#clip-path-33)"><g id="Group_1177" data-name="Group 1177"><g style="clip-path:url(#clip-path-22)"><g id="Group_1176" data-name="Group 1176"><path id="Path_972" data-name="Path 972" d="M167.26,255.64h1v-.9h-1Z" transform="translate(-130.4 -212.42)" style="fill:#c0c6c6"/></g></g></g></g><g style="clip-path:url(#clip-path-35)"><g id="Group_1179" data-name="Group 1179"><g style="clip-path:url(#clip-path-2)"><g id="Group_1178" data-name="Group 1178"><path id="Path_975" data-name="Path 975" d="M172.32,262.93h3.4v-1.67h-3.4Z" transform="translate(-130.4 -212.42)" style="fill:#c0c6c6"/></g></g></g></g><g style="clip-path:url(#clip-path-37)"><g id="Group_1181" data-name="Group 1181"><g style="clip-path:url(#clip-path-2)"><g id="Group_1180" data-name="Group 1180"><path id="Path_978" data-name="Path 978" d="M171.61,261.14h.95V260h-.95Z" transform="translate(-130.4 -212.42)" style="fill:#c0c6c6"/></g></g></g></g><g style="clip-path:url(#clip-path-39)"><g id="Group_1183" data-name="Group 1183"><g style="clip-path:url(#clip-path-2)"><g id="Group_1182" data-name="Group 1182"><path id="Path_981" data-name="Path 981" d="M185,278.26h6.32v-6.91H185Z" transform="translate(-130.4 -212.42)" style="fill:#c0c6c6"/></g></g></g></g><g style="clip-path:url(#clip-path-41)"><g id="Group_1185" data-name="Group 1185"><g style="clip-path:url(#clip-path-2)"><g id="Group_1184" data-name="Group 1184"><path id="Path_984" data-name="Path 984" d="M183.85,270.94h1.32V269h-1.32Z" transform="translate(-130.4 -212.42)" style="fill:#c0c6c6"/></g></g></g></g><g style="clip-path:url(#clip-path-43)"><g id="Group_1187" data-name="Group 1187"><g style="clip-path:url(#clip-path-8)"><g id="Group_1186" data-name="Group 1186"><path id="Path_987" data-name="Path 987" d="M189.9,271.57h1.61v-2.05H189.9Z" transform="translate(-130.4 -212.42)" style="fill:#c0c6c6"/></g></g></g></g><g style="clip-path:url(#clip-path-45)"><g id="Group_1189" data-name="Group 1189"><g style="clip-path:url(#clip-path-8)"><g id="Group_1188" data-name="Group 1188"><path id="Path_990" data-name="Path 990" d="M190.2,272h1.44V271H190.2Z" transform="translate(-130.4 -212.42)" style="fill:#c0c6c6"/></g></g></g></g><g style="clip-path:url(#clip-path-47)"><g id="Group_1191" data-name="Group 1191"><g style="clip-path:url(#clip-path-48)"><g id="Group_1190" data-name="Group 1190"><path id="Path_993" data-name="Path 993" d="M190.32,272.25h.93v-.86h-.93Z" transform="translate(-130.4 -212.42)" style="fill:#c0c6c6"/></g></g></g></g><g style="clip-path:url(#clip-path-49)"><g id="Group_1193" data-name="Group 1193"><g style="clip-path:url(#clip-path-8)"><g id="Group_1192" data-name="Group 1192"><path id="Path_996" data-name="Path 996" d="M185.84,268.24h1v-.94h-1Z" transform="translate(-130.4 -212.42)" style="fill:#c0c6c6"/></g></g></g></g><g style="clip-path:url(#clip-path-51)"><g id="Group_1195" data-name="Group 1195"><g style="clip-path:url(#clip-path-2)"><g id="Group_1194" data-name="Group 1194"><path id="Path_999" data-name="Path 999" d="M200.63,244.23H202v-2.72h-1.39Z" transform="translate(-130.4 -212.42)" style="fill:#c0c6c6"/></g></g></g></g><g style="clip-path:url(#clip-path-53)"><g id="Group_1197" data-name="Group 1197"><g style="clip-path:url(#clip-path-2)"><g id="Group_1196" data-name="Group 1196"><path id="Path_1002" data-name="Path 1002" d="M197.46,240.15h1.21v-1.4h-1.21Z" transform="translate(-130.4 -212.42)" style="fill:#c0c6c6"/></g></g></g></g><g style="clip-path:url(#clip-path-55)"><g id="Group_1199" data-name="Group 1199"><g style="clip-path:url(#clip-path-56)"><g id="Group_1198" data-name="Group 1198"><path id="Path_1005" data-name="Path 1005" d="M197,237.71h.9v-1.09H197Z" transform="translate(-130.4 -212.42)" style="fill:#c0c6c6"/></g></g></g></g><g style="clip-path:url(#clip-path-57)"><g id="Group_1201" data-name="Group 1201"><g style="clip-path:url(#clip-path-2)"><g id="Group_1200" data-name="Group 1200"><path id="Path_1008" data-name="Path 1008" d="M196.73,237.2h.92v-.9h-.92Z" transform="translate(-130.4 -212.42)" style="fill:#c0c6c6"/></g></g></g></g><g style="clip-path:url(#clip-path-59)"><g id="Group_1203" data-name="Group 1203"><g style="clip-path:url(#clip-path-2)"><g id="Group_1202" data-name="Group 1202"><path id="Path_1011" data-name="Path 1011" d="M194.27,233.18h.91v-.92h-.91Z" transform="translate(-130.4 -212.42)" style="fill:#c0c6c6"/></g></g></g></g><g style="clip-path:url(#clip-path-61)"><g id="Group_1205" data-name="Group 1205"><g style="clip-path:url(#clip-path-8)"><g id="Group_1204" data-name="Group 1204"><path id="Path_1014" data-name="Path 1014" d="M194.23,232.82h.9v-.91h-.9Z" transform="translate(-130.4 -212.42)" style="fill:#c0c6c6"/></g></g></g></g><g style="clip-path:url(#clip-path-63)"><g id="Group_1207" data-name="Group 1207"><g style="clip-path:url(#clip-path-2)"><g id="Group_1206" data-name="Group 1206"><path id="Path_1017" data-name="Path 1017" d="M190.29,229.9h.91V229h-.91Z" transform="translate(-130.4 -212.42)" style="fill:#c0c6c6"/></g></g></g></g><g style="clip-path:url(#clip-path-65)"><g id="Group_1209" data-name="Group 1209"><g style="clip-path:url(#clip-path-56)"><g id="Group_1208" data-name="Group 1208"><path id="Path_1020" data-name="Path 1020" d="M189.47,229.29h1.21V228h-1.21Z" transform="translate(-130.4 -212.42)" style="fill:#c0c6c6"/></g></g></g></g><g style="clip-path:url(#clip-path-67)"><g id="Group_1211" data-name="Group 1211"><g style="clip-path:url(#clip-path-2)"><g id="Group_1210" data-name="Group 1210"><path id="Path_1023" data-name="Path 1023" d="M185.19,272h.9v-.91h-.9Z" transform="translate(-130.4 -212.42)" style="fill:#c0c6c6"/></g></g></g></g><g style="clip-path:url(#clip-path-69)"><g id="Group_1213" data-name="Group 1213"><g style="clip-path:url(#clip-path-8)"><g id="Group_1212" data-name="Group 1212"><path id="Path_1026" data-name="Path 1026" d="M185.39,271.71h.91v-.91h-.91Z" transform="translate(-130.4 -212.42)" style="fill:#c0c6c6"/></g></g></g></g><g style="clip-path:url(#clip-path-71)"><g id="Group_1215" data-name="Group 1215"><g style="clip-path:url(#clip-path-2)"><g id="Group_1214" data-name="Group 1214"><path id="Path_1029" data-name="Path 1029" d="M172,220.91h1.94v-2H172Z" transform="translate(-130.4 -212.42)" style="fill:#c0c6c6"/></g></g></g></g><g style="clip-path:url(#clip-path-73)"><g id="Group_1217" data-name="Group 1217"><g style="clip-path:url(#clip-path-2)"><g id="Group_1216" data-name="Group 1216"><path id="Path_1032" data-name="Path 1032" d="M171.66,220h1.12V219h-1.12Z" transform="translate(-130.4 -212.42)" style="fill:#c0c6c6"/></g></g></g></g><g style="clip-path:url(#clip-path-75)"><g id="Group_1219" data-name="Group 1219"><g style="clip-path:url(#clip-path-2)"><g id="Group_1218" data-name="Group 1218"><path id="Path_1035" data-name="Path 1035" d="M171.7,219.38h.84v-1h-.84Z" transform="translate(-130.4 -212.42)" style="fill:#c0c6c6"/></g></g></g></g><g style="clip-path:url(#clip-path-77)"><g id="Group_1221" data-name="Group 1221"><g style="clip-path:url(#clip-path-8)"><g id="Group_1220" data-name="Group 1220"><path id="Path_1038" data-name="Path 1038" d="M172.72,223.6h1.17v-1.2h-1.17Z" transform="translate(-130.4 -212.42)" style="fill:#c0c6c6"/></g></g></g></g><g style="clip-path:url(#clip-path-79)"><g id="Group_1223" data-name="Group 1223"><g style="clip-path:url(#clip-path-2)"><g id="Group_1222" data-name="Group 1222"><path id="Path_1041" data-name="Path 1041" d="M173.1,223.76h1v-1.09h-1Z" transform="translate(-130.4 -212.42)" style="fill:#c0c6c6"/></g></g></g></g><g style="clip-path:url(#clip-path-81)"><g id="Group_1225" data-name="Group 1225"><g style="clip-path:url(#clip-path-2)"><g id="Group_1224" data-name="Group 1224"><path id="Path_1044" data-name="Path 1044" d="M172.32,223.41h1v-1h-1Z" transform="translate(-130.4 -212.42)" style="fill:#c0c6c6"/></g></g></g></g><g style="clip-path:url(#clip-path-83)"><g id="Group_1227" data-name="Group 1227"><g style="clip-path:url(#clip-path-2)"><g id="Group_1226" data-name="Group 1226"><path id="Path_1047" data-name="Path 1047" d="M172.47,223.7h.94v-.93h-.94Z" transform="translate(-130.4 -212.42)" style="fill:#c0c6c6"/></g></g></g></g><g style="clip-path:url(#clip-path-85)"><g id="Group_1229" data-name="Group 1229"><g style="clip-path:url(#clip-path-8)"><g id="Group_1228" data-name="Group 1228"><path id="Path_1050" data-name="Path 1050" d="M177.4,226.28h1.11v-1H177.4Z" transform="translate(-130.4 -212.42)" style="fill:#c0c6c6"/></g></g></g></g><g style="clip-path:url(#clip-path-87)"><g id="Group_1231" data-name="Group 1231"><g style="clip-path:url(#clip-path-2)"><g id="Group_1230" data-name="Group 1230"><path id="Path_1053" data-name="Path 1053" d="M177.07,225.62h1.6V224.2h-1.6Z" transform="translate(-130.4 -212.42)" style="fill:#c0c6c6"/></g></g></g></g><g style="clip-path:url(#clip-path-89)"><g id="Group_1233" data-name="Group 1233"><g style="clip-path:url(#clip-path-2)"><g id="Group_1232" data-name="Group 1232"><path id="Path_1056" data-name="Path 1056" d="M182.8,214.39h1v-1.13h-1Z" transform="translate(-130.4 -212.42)" style="fill:#c0c6c6"/></g></g></g></g><g style="clip-path:url(#clip-path-91)"><g id="Group_1235" data-name="Group 1235"><g style="clip-path:url(#clip-path-22)"><g id="Group_1234" data-name="Group 1234"><path id="Path_1059" data-name="Path 1059" d="M183.33,214.67h1.17v-1.11h-1.17Z" transform="translate(-130.4 -212.42)" style="fill:#c0c6c6"/></g></g></g></g><g style="clip-path:url(#clip-path-93)"><g id="Group_1237" data-name="Group 1237"><g style="clip-path:url(#clip-path-2)"><g id="Group_1236" data-name="Group 1236"><path id="Path_1062" data-name="Path 1062" d="M182.64,213.35h.91v-.93h-.91Z" transform="translate(-130.4 -212.42)" style="fill:#c0c6c6"/></g></g></g></g><g style="clip-path:url(#clip-path-95)"><g id="Group_1239" data-name="Group 1239"><g style="clip-path:url(#clip-path-96)"><g id="Group_1238" data-name="Group 1238"><path id="Path_1065" data-name="Path 1065" d="M183.06,213.35h.87v-.91h-.87Z" transform="translate(-130.4 -212.42)" style="fill:#c0c6c6"/></g></g></g></g></g></svg>